HIERARCHY
ROOT Hips
{
  OFFSET -33.9132 29.2015 117.021
  CHANNELS 6 Xposition Yposition Zposition Zrotation Xrotation Yrotation
  JOINT LeftUpLeg
  {
    OFFSET 8.64259 1.95398 -2.38835
    CHANNELS 3 Zrotation Xrotation Yrotation
    JOINT LeftLeg
    {
      OFFSET 43.7702 0 0
      CHANNELS 3 Zrotation Xrotation Yrotation
      JOINT LeftFoot
      {
        OFFSET 40.6238 0 0
        CHANNELS 3 Zrotation Xrotation Yrotation
        JOINT LeftToeBase
        {
          OFFSET 12.7242 0 0
          CHANNELS 3 Zrotation Xrotation Yrotation
          End Site
          {
            OFFSET 0 0 0
          }
        }
      }
    }
  }
  JOINT RightUpLeg
  {
    OFFSET -8.2249 1.95398 -2.59336
    CHANNELS 3 Zrotation Xrotation Yrotation
    JOINT RightLeg
    {
      OFFSET 43.5653 0 0
      CHANNELS 3 Zrotation Xrotation Yrotation
      JOINT RightFoot
      {
        OFFSET 40.6238 0 0
        CHANNELS 3 Zrotation Xrotation Yrotation
        JOINT RightToeBase
        {
          OFFSET 12.7242 0 0
          CHANNELS 3 Zrotation Xrotation Yrotation
          End Site
          {
            OFFSET 0 0 0
          }
        }
      }
    }
  }
  JOINT Spine
  {
    OFFSET 0.165834 0.87714 6.61349
    CHANNELS 3 Zrotation Xrotation Yrotation
    JOINT Spine1
    {
      OFFSET 7.38963 1.71661e-005 0
      CHANNELS 3 Zrotation Xrotation Yrotation
      JOINT Spine2
      {
        OFFSET 11.9445 1.14441e-005 0
        CHANNELS 3 Zrotation Xrotation Yrotation
        JOINT Spine3
        {
          OFFSET 14.7254 4.19617e-005 0
          CHANNELS 3 Zrotation Xrotation Yrotation
          JOINT Spine4
          {
            OFFSET 10.9679 0 0
            CHANNELS 3 Zrotation Xrotation Yrotation
            JOINT RightShoulder
            {
              OFFSET 2.46616 -1.6653 3.69651
              CHANNELS 3 Zrotation Xrotation Yrotation
              JOINT RightArm
              {
                OFFSET 13.0012 0 0
                CHANNELS 3 Zrotation Xrotation Yrotation
                JOINT RightForeArm
                {
                  OFFSET 28.7848 1.62311e-005 0
                  CHANNELS 3 Zrotation Xrotation Yrotation
                  JOINT RightHand
                  {
                    OFFSET 26.5688 1.62095e-005 0
                    CHANNELS 3 Zrotation Xrotation Yrotation
                    End Site
                    {
                      OFFSET 0 0 0
                    }
                  }
                }
              }
            }
            JOINT LeftShoulder
            {
              OFFSET 2.38034 -1.29275 -3.7523
              CHANNELS 3 Zrotation Xrotation Yrotation
              JOINT LeftArm
              {
                OFFSET 16.3182 6.07031e-005 0
                CHANNELS 3 Zrotation Xrotation Yrotation
                JOINT LeftForeArm
                {
                  OFFSET 27.0901 0 0
                  CHANNELS 3 Zrotation Xrotation Yrotation
                  JOINT LeftHand
                  {
                    OFFSET 24.5451 1.51738e-005 0
                    CHANNELS 3 Zrotation Xrotation Yrotation
                    End Site
                    {
                      OFFSET 0 0 0
                    }
                  }
                }
              }
            }
            JOINT Neck
            {
              OFFSET 5.0226 -0.0266342 0
              CHANNELS 3 Zrotation Xrotation Yrotation
              JOINT Head
              {
                OFFSET 6.69364 2.86102e-005 0
                CHANNELS 3 Zrotation Xrotation Yrotation
                End Site
                {
                  OFFSET 0 0 0
                }
              }
            }
          }
        }
      }
    }
  }
}
MOTION
Frames:	15
Frame Time:	0.0416667
17.3359 99.5689 -52.7206 -130.214 -78.83 -132.573 -174.897 0.618486 83.0356 -23.3386 -1.51521 -2.54047 76.3521 8.66333 -1.92295 13.281 -12.7621 8.30011 177.109 17.2542 89.3093 -47.7655 -7.01376 -3.19142 67.7583 -5.81632 -2.05787 22.624 1.8499 3.2563 -0.0170765 7.9034 -89.7781 11.0677 0.0689641 0.434924 -0.603288 0.0880395 0.431463 -23.138 -0.0649425 0.435539 -3.12539 -0.064937 0.435542 91.7359 -26.3793 -104.574 52.076 4.08909 -4.48833 -5.1084 -39.0868 -5.34125 -16.5484 2.1898 -20.8377 -87.759 -47.0081 81.539 -21.144 -12.7927 -25.2934 -10.6886 12.3426 -0.00280023 6.83864 -1.01324 -17.3603 1.60905 3.21237 -1.28409 -5.11973 3.38705 -0.801602 
16.6557 99.0027 -45.5424 -148.145 -82.3843 -150.663 -175.11 -3.92673 83.4464 -22.1803 2.79562 -1.75275 79.9155 11.0629 -1.79904 13.1723 -13.2023 8.86187 176.203 19.5597 89.6995 -25.2638 -4.65896 -0.483825 62.6414 -2.74191 -1.59417 24.3954 1.09747 3.19402 -0.641527 7.9326 -89.8365 11.0113 -1.20126 0.440376 -0.659126 -1.18072 0.492821 -23.1987 -1.27808 0.0589316 -3.18606 -1.27807 0.0589324 92.2598 -27.6811 -103.015 49.9216 6.64576 0.829533 -5.13184 -39.4573 -5.3541 -15.7291 2.00391 -20.318 -87.9287 -43.157 80.5061 -23.9278 -11.9634 -36.0376 -10.2158 13.8029 -0.0157332 8.95908 -1.74023 -21.2933 1.60278 3.27618 -3.48498 -4.89509 3.7445 1.46679 
16.0523 97.5351 -37.5611 178.135 -83.546 174.297 -174.796 -10.1114 83.8512 -20.9133 6.57473 -1.54306 84.338 14.0219 -2.98314 15.1187 -13.5572 11.3436 175.281 19.6182 88.3013 -6.32893 0.587633 1.25216 61.7012 -2.02299 -1.54104 24.8111 0.199448 5.73042 -1.084 7.98967 -89.7356 10.902 -2.03586 0.717938 -0.767614 -2.00229 0.806855 -23.3155 -2.15747 0.072614 -3.30284 -2.15747 0.0726107 92.6973 -29.0678 -101.66 48.9899 8.61891 6.50929 -4.90008 -35.6272 -5.23313 -15.4251 1.69073 -18.2565 -88.6404 -41.5791 78.9972 -24.3788 -11.6715 -45.3692 -9.73892 19.229 -0.0161816 10.5655 -2.25991 -23.2789 1.17727 3.11239 -5.05216 -4.35954 3.79898 2.43312 
15.4978 95.4548 -28.8556 144.033 -82.212 138.876 -174.108 -15.9247 85.137 -20.6737 10.8622 -1.08396 87.759 16.7754 -3.91019 18.6065 -13.0596 14.3438 174.729 22.5885 86.2334 -5.62513 9.25571 1.54718 64.1136 -2.23597 -0.751962 26.9042 -0.1903 3.94684 -1.38415 7.9977 -89.7364 10.8893 -2.63392 0.772027 -0.779306 -2.59739 0.887264 -23.3359 -2.74409 -0.0558569 -3.32329 -2.7441 -0.0558692 93.2287 -29.1193 -100.562 48.5159 10.0565 11.2394 -4.77302 -33.3738 -5.17454 -10.6877 0.996632 -16.6187 -89.7214 -42.2803 77.3832 -26.2898 -11.498 -51.6596 -9.01207 23.6134 -0.016675 9.6343 -2.04369 -23.1099 2.17962 2.32573 -5.21379 -4.7258 3.07639 2.98674 
15.2263 94.4946 -19.7416 123.563 -79.6242 118.126 -173.502 -17.3751 86.921 -25.4177 13.4256 0.197879 81.9953 15.3059 0.167043 31.2039 -5.55605 15.8598 172.008 26.4893 84.089 -16.1513 7.74608 3.67259 58.8894 2.4954 -0.288019 22.3759 2.57716 1.37257 -1.46562 8.0366 -89.9595 10.8085 -2.89964 0.351031 -0.859274 -2.88138 0.478415 -23.42 -2.87098 -0.537404 -3.40737 -2.87098 -0.537403 92.9263 -28.7022 -101.306 48.2228 10.8118 13.8276 -4.57069 -29.5472 -5.08733 -7.19239 0.415876 -12.7006 -90.7954 -42.8391 75.7873 -29.8303 -10.2316 -54.7532 -8.35168 29.4935 -0.0175536 7.03372 -1.10661 -19.3011 5.72793 1.36932 -2.89473 -5.06866 1.83895 2.49064 
14.7865 93.7389 -11.7528 116.08 -79.5053 111.139 -170.66 -8.49441 90.2533 -43.8863 15.3337 -0.316077 68.516 6.70325 3.37578 39.5981 0.605065 13.3735 169.346 32.8664 83.5807 -32.5253 2.22919 6.62502 59.9714 2.55616 -0.922698 10.6686 6.90741 4.01585 -1.14775 8.31782 -90.2498 10.2366 -2.40092 -0.29094 -1.43217 -2.41139 -0.184926 -23.9826 -2.20243 -0.999394 -3.97 -2.20243 -0.999393 92.0482 -27.06 -103.673 47.6984 9.916 9.92924 -4.56196 -29.3815 -5.0854 -6.04922 0.251284 -10.9646 -91.2463 -40.6446 74.4411 -32.0103 -8.19389 -58.6402 -8.08304 38.28 -0.0194636 1.72359 0.26897 -13.6776 11.6209 0.636684 -0.68306 -4.05976 0.760788 2.14411 
14.0237 92.6462 -7.21687 109.535 -79.8882 105.587 -164.123 11.351 95.8765 -69.2995 13.6933 -1.64579 58.4063 -0.610051 1.66808 4.48972 -13.0991 1.07536 165.287 36.4063 85.7374 -42.1411 -1.31122 7.87918 63.8794 -1.69858 -3.32097 13.3759 5.26951 4.99804 -0.752549 8.98901 -90.491 8.889 -1.71988 -0.855785 -2.78104 -1.75587 -0.779255 -25.3205 -1.38319 -1.33315 -5.30783 -1.38318 -1.33316 90.7901 -25.2277 -107.041 43.736 8.24601 -1.85666 -4.94099 -36.3309 -5.25517 -8.87329 0.337337 -9.86218 -91.3675 -38.3134 73.5486 -31.3773 -6.70607 -66.6713 -7.65173 51.0843 -0.0243225 -6.60067 1.57107 -9.10139 18.8046 -0.145474 0.223999 -2.85362 -0.21128 1.53586 
13.8866 91.7264 -4.24072 84.3326 -81.3612 79.4614 -154.653 29.4149 90.0322 -77.5152 10.2477 -4.47318 67.7421 6.10043 3.0515 9.92058 -11.1484 2.83915 161.455 41.8384 86.1497 -46.9949 -5.37879 9.75202 67.1161 -4.62802 -4.36777 14.1236 4.63046 5.77528 -0.359275 9.4439 -90.5668 7.98051 -0.965132 -1.06353 -3.69053 -1.01101 -1.02003 -26.2232 -0.600925 -1.30438 -6.21052 -0.60093 -1.3044 91.3847 -22.054 -107.079 38.8036 6.73616 -18.1842 -5.06852 -38.4391 -5.31843 -19.5813 0.0905195 -6.47583 -91.9361 -37.7729 72.4095 -25.9055 -5.16589 -69.7173 -9.65198 55.9392 -0.0272801 5.70394 0.706144 -5.11768 22.9854 -0.356869 2.19019 0.560972 -1.03709 1.44208 
14.1286 90.1617 -1.84985 41.9512 -81.6498 35.9331 -144.535 42.2324 84.856 -71.2946 6.20414 -10.0004 71.255 8.19909 1.81432 13.3976 -9.4952 3.32839 156.622 49.0022 87.9713 -51.7336 -11.3835 11.8155 69.5365 -6.79352 -4.80669 14.1133 4.12924 7.04873 0.16069 9.70297 -90.3779 7.46836 0.157229 -0.753208 -4.20278 0.123931 -0.759404 -26.7365 0.376331 -0.671141 -6.7239 0.376321 -0.671147 92.8332 -15.9207 -106.552 39.1447 2.92185 -32.9699 -5.01195 -37.5813 -5.29173 -25.2229 -0.352976 -3.54979 -91.5965 -36.2058 72.4836 -22.7842 -3.91258 -72.721 -11.0504 56.2724 -0.0275173 16.2026 0.771334 0.387091 25.1925 -0.442099 1.92357 2.28986 -1.00432 2.12313 
14.9206 87.9476 0.478132 16.1398 -79.7721 10.3143 -143.986 51.767 87.2147 -60.9682 6.01924 -13.6104 70.8562 7.52854 0.930365 12.2507 -11.2153 4.98067 148.316 55.0046 92.6259 -58.0819 -17.996 13.2849 69.8275 -7.52092 -4.86953 15.4045 2.86829 8.97415 0.417979 10.0686 -90.3247 6.73837 0.696308 -0.667084 -4.93257 0.666275 -0.697091 -27.4686 0.864601 -0.426985 -7.45593 0.864594 -0.42698 93.1126 -13.1602 -107.203 38.2794 0.603925 -43.9169 -5.38552 -43.2467 -5.50199 -22.3634 -0.711181 -1.53131 -92.6844 -36.5479 70.7129 -25.9943 -5.47494 -76.1146 -8.5662 63.2816 -0.0339827 17.8855 1.11313 2.60588 28.6094 -0.116514 1.76528 2.75948 -0.697733 1.81337 
16.535 84.07 2.82975 2.78739 -77.2902 -3.40394 -145.241 60.0243 91.3143 -57.7825 10.6079 -13.6901 66.2477 4.42257 1.14512 7.64165 -13.048 3.66252 135.684 62.2219 100.827 -68.2903 -25.8995 12.3644 70.619 -8.86561 -5.84192 15.5342 2.31504 10.3207 0.559637 10.6229 -90.2192 5.63031 1.02675 -0.457602 -6.04031 1.00562 -0.502357 -28.5787 1.1168 -0.127825 -8.56605 1.1168 -0.127836 92.7721 -13.3923 -108.004 37.2772 -1.25947 -53.1154 -5.64687 -46.715 -5.66404 -20.2892 -1.3302 2.39351 -91.5058 -32.1765 71.2704 -26.6325 -3.40266 -80.716 -8.38626 69.7082 -0.0440565 17.5163 1.425 4.77572 36.3608 0.125981 2.47791 1.88317 -0.943205 1.24908 
19.3081 77.9303 5.07693 -9.25596 -75.5497 -15.1805 -133.131 68.959 85.0341 -69.1835 20.8523 -11.2391 63.2305 2.81327 3.22691 14.3674 -9.7924 4.60344 114.634 68.9942 118.093 -83.0293 -32.1214 8.31188 71.152 -9.98922 -7.0916 16.2432 1.05676 13.0779 0.68564 10.7663 -90.0404 5.34146 1.35324 -0.107689 -6.32881 1.34719 -0.167168 -28.8694 1.32303 0.304069 -8.85671 1.32303 0.304057 89.6095 -18.0921 -113.243 36.9741 -0.78774 -52.6312 -7.12636 -60.3877 -6.78681 -22.1216 -1.66897 3.58881 -92.4284 -34.4293 70.4129 -24.8641 -3.18694 -80.436 -8.86375 74.1762 -0.0560322 13.643 1.2311 4.13247 40.2414 0.743636 2.07589 0.944026 -0.303598 0.323662 
22.5552 70.7765 6.46647 -15.9048 -73.9999 -21.0744 -97.6993 75.7179 53.8852 -88.132 23.4816 -5.54599 67.5057 6.03214 3.36263 19.0958 -8.93121 7.89889 80.9163 72.2481 149.267 -98.578 -35.8495 2.52111 70.8144 -10.6423 -8.92992 16.7665 0.8329 13.2049 0.790118 11.1081 -90.0033 4.65733 1.57748 -0.0260651 -7.01267 1.57481 -0.0954863 -29.5551 1.51237 0.449355 -9.54244 1.51236 0.449347 87.957 -19.8536 -116.034 37.0656 -0.923199 -52.7468 -8.32814 -66.8101 -7.83584 -26.2444 -2.90207 7.44182 -93.2968 -34.7252 68.9883 -24.739 -3.72524 -81.7525 -8.65134 74.2122 -0.0561566 13.1251 1.56698 6.65743 44.7017 0.772511 2.25574 0.739587 -0.499247 -1.06261 
25.6901 63.9342 7.24525 -21.0629 -73.0215 -25.4513 -57.1796 74.9709 15.3971 -103.814 22.881 -0.0154379 72.8272 10.5946 5.40368 23.2661 -7.55846 9.91155 52.0586 70.8229 177.179 -111.488 -36.2478 -2.35106 71.7176 -12.0126 -9.97921 18.6351 0.411852 12.5702 0.911506 11.5166 -89.9628 3.83954 1.83612 0.069934 -7.83011 1.83743 -0.0109765 -30.3748 1.73019 0.618689 -10.3621 1.73019 0.618696 87.391 -20.5911 -116.856 36.0179 -0.409901 -54.7068 -8.54521 -67.6997 -8.03019 -22.688 -2.34119 6.73485 -93.349 -33.843 68.5576 -25.7904 -4.40738 -83.4607 -7.67485 75.8839 -0.0626472 8.81767 1.37707 5.51672 48.3622 0.702804 2.41693 0.385407 -0.745808 -1.76466 
28.2184 57.7698 7.80163 -27.7883 -73.2593 -31.7531 -39.1322 71.7205 -1.4269 -115.907 19.7646 3.88425 79.16 15.2971 5.38943 25.3937 -6.48299 10.3198 36.3961 69.1601 -167.03 -121.411 -35.9058 -5.52827 75.6505 -16.1317 -10.8729 18.4917 1.19303 10.3988 1.03892 11.9802 -89.9328 2.91075 2.10175 0.153332 -8.75852 2.10646 0.0606366 -31.3058 1.95847 0.778147 -11.2932 1.95847 0.778133 87.6176 -20.1786 -116.602 35.4379 0.043573 -55.3059 -9.99985 -72.3122 -9.37255 -28.4012 -4.38285 12.449 -93.5222 -34.0021 68.3114 -25.1231 -4.3223 -83.591 -8.07211 75.2764 -0.060116 8.74495 1.46001 6.69868 50.4619 1.31169 3.62489 -0.151806 -0.92675 -2.05275 
